<mxfile host="app.diagrams.net" agent="Mozilla/5.0 (Windows NT 10.0; Win64; x64) AppleWebKit/537.36 (KHTML, like Gecko) Chrome/134.0.0.0 Safari/537.36" version="26.2.4">
  <diagram name="PÃ¡gina-1" id="oTaiG2rIHqSgLkZ1_f3R">
    <mxGraphModel dx="1428" dy="751" grid="1" gridSize="10" guides="1" tooltips="1" connect="1" arrows="1" fold="1" page="1" pageScale="1" pageWidth="827" pageHeight="1169" math="0" shadow="0">
      <root>
        <mxCell id="0" />
        <mxCell id="1" parent="0" />
        <mxCell id="B5jQtMlMlFDZpYIzIw2--7" value="AWS Account" style="points=[[0,0],[0.25,0],[0.5,0],[0.75,0],[1,0],[1,0.25],[1,0.5],[1,0.75],[1,1],[0.75,1],[0.5,1],[0.25,1],[0,1],[0,0.75],[0,0.5],[0,0.25]];outlineConnect=0;gradientColor=none;html=1;whiteSpace=wrap;fontSize=12;fontStyle=0;container=1;pointerEvents=0;collapsible=0;recursiveResize=0;shape=mxgraph.aws4.group;grIcon=mxgraph.aws4.group_account;strokeColor=#CD2264;fillColor=none;verticalAlign=top;align=left;spacingLeft=30;fontColor=#CD2264;dashed=0;" parent="1" vertex="1">
          <mxGeometry x="30" y="30" width="700" height="720" as="geometry" />
        </mxCell>
        <mxCell id="B5jQtMlMlFDZpYIzIw2--10" value="VPC" style="points=[[0,0],[0.25,0],[0.5,0],[0.75,0],[1,0],[1,0.25],[1,0.5],[1,0.75],[1,1],[0.75,1],[0.5,1],[0.25,1],[0,1],[0,0.75],[0,0.5],[0,0.25]];outlineConnect=0;gradientColor=none;html=1;whiteSpace=wrap;fontSize=12;fontStyle=0;container=1;pointerEvents=0;collapsible=0;recursiveResize=0;shape=mxgraph.aws4.group;grIcon=mxgraph.aws4.group_vpc2;strokeColor=#8C4FFF;fillColor=none;verticalAlign=top;align=left;spacingLeft=30;fontColor=#AAB7B8;dashed=0;" parent="B5jQtMlMlFDZpYIzIw2--7" vertex="1">
          <mxGeometry x="20" y="40" width="660.21" height="390" as="geometry" />
        </mxCell>
        <mxCell id="B5jQtMlMlFDZpYIzIw2--18" value="Private subnet" style="points=[[0,0],[0.25,0],[0.5,0],[0.75,0],[1,0],[1,0.25],[1,0.5],[1,0.75],[1,1],[0.75,1],[0.5,1],[0.25,1],[0,1],[0,0.75],[0,0.5],[0,0.25]];outlineConnect=0;gradientColor=none;html=1;whiteSpace=wrap;fontSize=12;fontStyle=0;container=1;pointerEvents=0;collapsible=0;recursiveResize=0;shape=mxgraph.aws4.group;grIcon=mxgraph.aws4.group_security_group;grStroke=0;strokeColor=#00A4A6;fillColor=#E6F6F7;verticalAlign=top;align=left;spacingLeft=30;fontColor=#147EBA;dashed=0;" parent="B5jQtMlMlFDZpYIzIw2--10" vertex="1">
          <mxGeometry x="70" y="50" width="480.21000000000004" height="200" as="geometry" />
        </mxCell>
        <mxCell id="B5jQtMlMlFDZpYIzIw2--12" value="Lambda" style="sketch=0;points=[[0,0,0],[0.25,0,0],[0.5,0,0],[0.75,0,0],[1,0,0],[0,1,0],[0.25,1,0],[0.5,1,0],[0.75,1,0],[1,1,0],[0,0.25,0],[0,0.5,0],[0,0.75,0],[1,0.25,0],[1,0.5,0],[1,0.75,0]];outlineConnect=0;fontColor=#232F3E;fillColor=#ED7100;strokeColor=#ffffff;dashed=0;verticalLabelPosition=top;verticalAlign=bottom;align=center;html=1;fontSize=12;fontStyle=0;aspect=fixed;shape=mxgraph.aws4.resourceIcon;resIcon=mxgraph.aws4.lambda;labelPosition=center;" parent="B5jQtMlMlFDZpYIzIw2--18" vertex="1">
          <mxGeometry x="61" y="61" width="78" height="78" as="geometry" />
        </mxCell>
        <mxCell id="B5jQtMlMlFDZpYIzIw2--31" value="Security group" style="fillColor=none;strokeColor=#DD3522;verticalAlign=top;fontStyle=0;fontColor=#DD3522;whiteSpace=wrap;html=1;" parent="B5jQtMlMlFDZpYIzIw2--18" vertex="1">
          <mxGeometry x="-11" y="-21" width="540" height="310" as="geometry" />
        </mxCell>
        <mxCell id="B5jQtMlMlFDZpYIzIw2--9" value="Public subnet" style="points=[[0,0],[0.25,0],[0.5,0],[0.75,0],[1,0],[1,0.25],[1,0.5],[1,0.75],[1,1],[0.75,1],[0.5,1],[0.25,1],[0,1],[0,0.75],[0,0.5],[0,0.25]];outlineConnect=0;gradientColor=none;html=1;whiteSpace=wrap;fontSize=12;fontStyle=0;container=1;pointerEvents=0;collapsible=0;recursiveResize=0;shape=mxgraph.aws4.group;grIcon=mxgraph.aws4.group_security_group;grStroke=0;strokeColor=#7AA116;fillColor=#F2F6E8;verticalAlign=top;align=left;spacingLeft=30;fontColor=#248814;dashed=0;" parent="B5jQtMlMlFDZpYIzIw2--10" vertex="1">
          <mxGeometry x="350" y="50" width="199.24" height="200" as="geometry" />
        </mxCell>
        <mxCell id="B5jQtMlMlFDZpYIzIw2--19" value="EC2" style="outlineConnect=0;dashed=0;verticalLabelPosition=top;verticalAlign=bottom;align=center;html=1;shape=mxgraph.aws3.ec2;fillColor=#F58534;gradientColor=none;labelPosition=center;" parent="B5jQtMlMlFDZpYIzIw2--9" vertex="1">
          <mxGeometry x="61.75" y="53.5" width="76.5" height="93" as="geometry" />
        </mxCell>
        <mxCell id="B5jQtMlMlFDZpYIzIw2--41" value="" style="shape=image;verticalLabelPosition=bottom;labelBackgroundColor=default;verticalAlign=top;aspect=fixed;imageAspect=0;image=https://profissionaislinux.com.br/wp-content/uploads/2022/08/squid-logo-png.png;" parent="B5jQtMlMlFDZpYIzIw2--9" vertex="1">
          <mxGeometry x="19.889999999999986" y="66.13999999999999" width="160.21" height="67.73" as="geometry" />
        </mxCell>
        <mxCell id="B5jQtMlMlFDZpYIzIw2--24" style="edgeStyle=orthogonalEdgeStyle;rounded=0;orthogonalLoop=1;jettySize=auto;html=1;" parent="B5jQtMlMlFDZpYIzIw2--10" source="B5jQtMlMlFDZpYIzIw2--12" target="B5jQtMlMlFDZpYIzIw2--19" edge="1">
          <mxGeometry relative="1" as="geometry" />
        </mxCell>
        <mxCell id="B5jQtMlMlFDZpYIzIw2--33" value="Elastic IP Address" style="points=[];aspect=fixed;html=1;align=center;shadow=0;dashed=0;fillColor=#FF6A00;strokeColor=none;shape=mxgraph.alibaba_cloud.eip_elastic_ip_address;verticalAlign=top;labelPosition=center;verticalLabelPosition=bottom;" parent="B5jQtMlMlFDZpYIzIw2--10" vertex="1">
          <mxGeometry x="473" y="181.5" width="47.400000000000006" height="46.5" as="geometry" />
        </mxCell>
        <mxCell id="B5jQtMlMlFDZpYIzIw2--17" style="edgeStyle=orthogonalEdgeStyle;rounded=0;orthogonalLoop=1;jettySize=auto;html=1;" parent="B5jQtMlMlFDZpYIzIw2--7" source="B5jQtMlMlFDZpYIzIw2--15" target="B5jQtMlMlFDZpYIzIw2--13" edge="1">
          <mxGeometry relative="1" as="geometry" />
        </mxCell>
        <mxCell id="B5jQtMlMlFDZpYIzIw2--15" value="ECR Container Registry" style="outlineConnect=0;dashed=0;verticalLabelPosition=top;verticalAlign=bottom;align=center;html=1;shape=mxgraph.aws3.ecr_registry;fillColor=#F58534;gradientColor=none;labelPosition=center;" parent="B5jQtMlMlFDZpYIzIw2--7" vertex="1">
          <mxGeometry x="161.5" y="590" width="57" height="60" as="geometry" />
        </mxCell>
        <mxCell id="B5jQtMlMlFDZpYIzIw2--23" style="edgeStyle=orthogonalEdgeStyle;rounded=0;orthogonalLoop=1;jettySize=auto;html=1;" parent="B5jQtMlMlFDZpYIzIw2--7" source="B5jQtMlMlFDZpYIzIw2--13" target="B5jQtMlMlFDZpYIzIw2--12" edge="1">
          <mxGeometry relative="1" as="geometry" />
        </mxCell>
        <mxCell id="B5jQtMlMlFDZpYIzIw2--13" value="ECR Container" style="sketch=0;points=[[0,0,0],[0.25,0,0],[0.5,0,0],[0.75,0,0],[1,0,0],[0,1,0],[0.25,1,0],[0.5,1,0],[0.75,1,0],[1,1,0],[0,0.25,0],[0,0.5,0],[0,0.75,0],[1,0.25,0],[1,0.5,0],[1,0.75,0]];outlineConnect=0;fontColor=#232F3E;fillColor=#ED7100;strokeColor=#ffffff;dashed=0;verticalLabelPosition=top;verticalAlign=bottom;align=center;html=1;fontSize=12;fontStyle=0;aspect=fixed;shape=mxgraph.aws4.resourceIcon;resIcon=mxgraph.aws4.ecr;labelPosition=center;" parent="B5jQtMlMlFDZpYIzIw2--7" vertex="1">
          <mxGeometry x="151" y="450" width="78" height="78" as="geometry" />
        </mxCell>
        <mxCell id="B5jQtMlMlFDZpYIzIw2--30" value="Internet" style="fillColor=none;strokeColor=#5A6C86;dashed=1;verticalAlign=top;fontStyle=0;fontColor=#5A6C86;whiteSpace=wrap;html=1;" parent="1" vertex="1">
          <mxGeometry x="840" y="30" width="550" height="360" as="geometry" />
        </mxCell>
        <mxCell id="B5jQtMlMlFDZpYIzIw2--37" value="Server to be reached" style="image;aspect=fixed;perimeter=ellipsePerimeter;html=1;align=center;shadow=0;dashed=0;spacingTop=3;image=img/lib/active_directory/web_server.svg;" parent="1" vertex="1">
          <mxGeometry x="1230" y="130" width="144" height="180" as="geometry" />
        </mxCell>
        <mxCell id="uVGcmKRYqGthIEnD-wxL-3" style="edgeStyle=orthogonalEdgeStyle;rounded=0;orthogonalLoop=1;jettySize=auto;html=1;" edge="1" parent="1" source="uVGcmKRYqGthIEnD-wxL-1" target="B5jQtMlMlFDZpYIzIw2--37">
          <mxGeometry relative="1" as="geometry" />
        </mxCell>
        <mxCell id="uVGcmKRYqGthIEnD-wxL-1" value="Residential Proxy" style="shadow=0;dashed=0;html=1;labelPosition=center;verticalLabelPosition=bottom;verticalAlign=top;align=center;outlineConnect=0;shape=mxgraph.veeam.3d.proxy;" vertex="1" parent="1">
          <mxGeometry x="890" y="160" width="120" height="120" as="geometry" />
        </mxCell>
        <mxCell id="uVGcmKRYqGthIEnD-wxL-2" style="edgeStyle=orthogonalEdgeStyle;rounded=0;orthogonalLoop=1;jettySize=auto;html=1;" edge="1" parent="1" source="B5jQtMlMlFDZpYIzIw2--41" target="uVGcmKRYqGthIEnD-wxL-1">
          <mxGeometry relative="1" as="geometry" />
        </mxCell>
      </root>
    </mxGraphModel>
  </diagram>
</mxfile>
